<svg id="Cake" xmlns="http://www.w3.org/2000/svg" viewBox="0 0 686.756 586.381"><defs><style>.cls-1{fill:#c4bfb9;}.cls-2{fill:#dddad3;}.cls-3{fill:#d4d1c9;}.cls-4{fill:#fee9a9;}.cls-5{fill:#967d74;}.cls-6{fill:#f0746c;}.cls-7{fill:#ef8377;}.cls-8{fill:#f7e2c8;}.cls-9{fill:#c5a99d;}.cls-10{fill:#eeeae4;}.cls-11{fill:#f05455;}</style></defs><path class="cls-1" d="M742.038,539.6c0,35.057-153.606,63.477-343.089,63.477S55.86,574.659,55.86,539.6c0-2.138-1.224-15.846-.108-17.929,17.179-32.084,165.268-45.549,343.2-45.549,174.708,0,342.981,7.661,342.981,45.549C741.93,526.193,742.038,536.868,742.038,539.6Z" transform="translate(-55.283 -16.698)"/><ellipse class="cls-2" cx="343.378" cy="504.975" rx="343.089" ry="63.478"/><ellipse class="cls-3" cx="343.378" cy="504.402" rx="318.821" ry="51.157"/><path class="cls-4" d="M682.806,311.909V512.337c0,23.473-127.225,42.5-284.145,42.5-156.936,0-284.146-19.023-284.146-42.5V311.909Z" transform="translate(-55.283 -16.698)"/><rect class="cls-5" x="268.339" y="11.818" width="1.922" height="11.818"/><rect class="cls-5" x="402.196" y="11.818" width="1.922" height="11.818"/><rect class="cls-5" x="335.451" width="1.922" height="11.818"/><path class="cls-6" d="M114.14,311.909s-8.845,115.347,0,119.489c33.478.023,13.984-62,41.953-60.733s6.781,72.276,40.683,72.585,16.952-58.977,44.074-58.585,17.8,64.234,51.136,62.539,20.125-57.148,50.638-53.367,22.581,60.713,56.037,60.713,32.89-60.959,54.927-61.415,25.427,39.927,51.7,40.236,32.207-46.555,51.7-48.706,27.122,35.39,46.616,35.7,16.1-44.438,37.293-46.589,17.8,69.166,41.532,69.475c10.532-33.075,0-131.342,0-131.342Z" transform="translate(-55.283 -16.698)"/><ellipse class="cls-7" cx="343.378" cy="295.211" rx="284.145" ry="42.495"/><path class="cls-4" d="M591.4,164.392V300.344c0,15.921-86.3,28.826-192.738,28.826s-192.739-12.905-192.739-28.826V164.392Z" transform="translate(-55.283 -16.698)"/><path class="cls-6" d="M591.877,164.392s6.007,78.24,0,81.05c-22.734.016-9.5-42.058-28.49-41.2s-4.6,49.026-27.628,49.235-11.511-40-29.93-39.738-12.087,43.57-34.726,42.421-13.667-38.765-34.388-36.2-15.335,41.181-38.054,41.181-22.336-41.349-37.3-41.658-17.268,27.083-35.11,27.293-21.872-31.579-35.111-33.038-18.418,24-31.656,24.215-10.936-30.142-25.326-31.6-12.088,46.915-28.2,47.125c-7.152-22.435,0-89.09,0-89.09Z" transform="translate(-55.283 -16.698)"/><ellipse class="cls-7" cx="343.378" cy="147.693" rx="192.738" ry="28.825"/><rect class="cls-8" x="329.475" y="11.818" width="13.873" height="142.662"/><polygon class="cls-9" points="343.348 20.878 329.475 33.227 329.475 42.599 343.348 30.251 343.348 20.878"/><polygon class="cls-9" points="343.348 56.73 329.475 69.079 329.475 78.451 343.348 66.102 343.348 56.73"/><polygon class="cls-9" points="343.348 92.582 329.475 104.931 329.475 114.303 343.348 101.954 343.348 92.582"/><polygon class="cls-9" points="343.348 128.434 329.475 140.782 329.475 150.155 343.348 137.806 343.348 128.434"/><rect class="cls-8" x="263.93" y="23.637" width="11.473" height="117.977"/><polygon class="cls-9" points="275.403 31.129 263.93 41.341 263.93 49.091 275.403 38.879 275.403 31.129"/><polygon class="cls-9" points="275.403 60.777 263.93 70.989 263.93 78.74 275.403 68.528 275.403 60.777"/><polygon class="cls-9" points="275.403 90.426 263.93 100.638 263.93 108.388 275.403 98.176 275.403 90.426"/><polygon class="cls-9" points="275.403 120.074 263.93 130.286 263.93 138.037 275.403 127.825 275.403 120.074"/><rect class="cls-8" x="397.421" y="23.637" width="11.473" height="117.977"/><polygon class="cls-9" points="408.893 31.129 397.421 41.341 397.421 49.091 408.893 38.879 408.893 31.129"/><polygon class="cls-9" points="408.893 60.777 397.421 70.989 397.421 78.74 408.893 68.528 408.893 60.777"/><polygon class="cls-9" points="408.893 90.426 397.421 100.638 397.421 108.388 408.893 98.176 408.893 90.426"/><polygon class="cls-9" points="408.893 120.074 397.421 130.286 397.421 138.037 408.893 127.825 408.893 120.074"/><ellipse class="cls-10" cx="577.543" cy="293.483" rx="21.613" ry="9.747"/><path class="cls-11" d="M648.677,308c0,3.671-6.766,6.688-15.29,6.86-.265.015-.545.015-.825.015s-.56,0-.824-.015c-8.54-.172-15.307-3.189-15.307-6.86v-9.256a16.123,16.123,0,0,1,32.246,0Z" transform="translate(-55.283 -16.698)"/><ellipse class="cls-10" cx="343.373" cy="321.373" rx="21.613" ry="9.747"/><path class="cls-11" d="M414.507,335.891c0,3.671-6.766,6.689-15.29,6.86-.265.015-.545.015-.825.015s-.56,0-.824-.015c-8.54-.171-15.307-3.189-15.307-6.86v-9.255a16.123,16.123,0,0,1,32.246,0Z" transform="translate(-55.283 -16.698)"/><ellipse class="cls-10" cx="110.113" cy="292.638" rx="21.613" ry="9.747"/><path class="cls-11" d="M181.247,307.156c0,3.671-6.767,6.689-15.291,6.86-.265.015-.545.015-.825.015s-.559,0-.824-.015c-8.54-.171-15.306-3.189-15.306-6.86V297.9a16.123,16.123,0,0,1,32.246,0Z" transform="translate(-55.283 -16.698)"/><ellipse class="cls-10" cx="219.196" cy="314.136" rx="21.613" ry="9.747"/><path class="cls-11" d="M290.33,328.654c0,3.671-6.767,6.688-15.291,6.859-.265.016-.545.016-.825.016s-.56,0-.824-.016c-8.54-.171-15.306-3.188-15.306-6.859V319.4a16.123,16.123,0,0,1,32.246,0Z" transform="translate(-55.283 -16.698)"/><ellipse class="cls-10" cx="476.26" cy="314.136" rx="21.613" ry="9.747"/><path class="cls-11" d="M547.393,328.654c0,3.671-6.766,6.688-15.29,6.859-.265.016-.545.016-.825.016s-.56,0-.824-.016c-8.54-.171-15.306-3.188-15.306-6.859V319.4a16.123,16.123,0,0,1,32.245,0Z" transform="translate(-55.283 -16.698)"/></svg>