<svg id="Flags" xmlns="http://www.w3.org/2000/svg" viewBox="0 0 798.418 166.144"><defs><style>.cls-12{fill:#ef8377;}.cls-13{fill:#6f472e;}.cls-14,.cls-17{fill:#f05455;}.cls-15,.cls-16{fill:#fee9a9;}.cls-16{stroke:#fde8a9;}.cls-16,.cls-17{stroke-miterlimit:10;}.cls-17{stroke:#f05555;}</style></defs><path class="cls-12" d="M778.3,88.348c-2.023,8.235-4.071,16.464-6.039,24.712a20.419,20.419,0,0,0-.219,3.608l-2.682,9.658q-1.154,4.91-2.308,9.818l-2.677,9.657c-.441,1.872-.883,3.744-1.4,5.942l-2.247-1.417a4.886,4.886,0,0,0-.471-1.325c-2.386-3.245-4.776-6.488-7.23-9.681-2.248-2.925-4.578-5.787-6.871-8.678l-2.07-3.284-5.186-6.537c-2.833-3.743-5.592-7.546-8.526-11.209-1.992-2.486-4.23-4.775-6.358-7.153l.252-2.643a14.9,14.9,0,0,1,1.843-.592c10.289-1.932,20.61-3.709,30.866-5.807C764.132,91.952,771.2,90.053,778.3,88.348Z" transform="translate(3.209 0.002)"/><path class="cls-13" d="M325.554,0c-.17.193-.338.388-.514.574l-8.476,6.047-.132.045c-.642.377-1.3.729-1.926,1.133-9.544,6.186-19.024,12.475-28.649,18.533-5.332,3.356-10.9,6.33-16.366,9.475l-2.08,1-1.5.767-2.351,1.287-.9.417-1.549.886-.025.016-2.038,1.066a13.438,13.438,0,0,0-1.663.521c-10.3,4.716-20.535,9.566-30.9,14.129-6.48,2.853-13.149,5.276-19.732,7.894q-.314.347-.629.692l-1.65.221-7.75,2.447c-.4.08-.817.129-1.211.244-11.248,3.294-22.461,6.712-33.753,9.846-6.4,1.778-12.933,3.093-19.406,4.616l-11.6,2.5a9.574,9.574,0,0,0-1.234.012Q102.709,88.01,75.9,91.671l-9.026.783-.533.026c-.745-.039-1.492-.133-2.235-.109-13.218.422-26.435.907-39.655,1.265-4.892.133-9.793-.027-14.69-.053l-.768-.193-1.506-.139L6,93.386a.186.186,0,0,0-.3-.049L.81,93.019l-1.977.028-2.042-.95L-2.1,90.522l1.486-.052,4.12.175,1.986-.007,10.294.3.99.044,1.548.15,6.115.057,5.594-.08,1.976-.159,7.172.011,1.98-.112,1.07.086,1.982-.143,14.151-.573,1.99-.181,4.036-.229,1.956-.209,2.577-.062,1.549-.056,2.987-.245,14.978-1.525.978-.116,2.058-.2,2.5-.234L106.382,85.5l1.481-.171,18.354-2.85,4.886-.842c4.787-.991,9.58-1.96,14.36-2.985,1.925-.413,3.824-.95,5.736-1.43l2.419-.619,11.757-2.882,2.425-.473,2.424-.809,3.367-.888,4.4-1.4.948-.235,3.866-1.188,1.932-.484,12.049-3.97,1.9-.549,1.455-.571,2.39-.686,5.305-2.073,1.406-.435,4.8-1.748,1.376-.595,2.979-1.142.88-.29,1.472-.546L222.094,55l1.185-.547.083-.088,2.087-.729,1.458-.626,1.38-.528.97-.453,1.388-.568.525-.228.912-.356,8.147-3.491a.358.358,0,0,0,.389-.222l1.868-.979,3.277-1.359.527-.266,1.837-.955,1.159-.56,1.193-.438q5.859-2.979,11.717-5.959l2.3-1.12,1.3-.762.592-.3L267.18,34l1.057-.523,2.007-1.082.068-.037,2.814-1.591,2.557-1.384.455-.289,3.268-1.951L289.6,21.2l.828-.472.813-.665,2.429-1.318.525-.431.843-.524,2.8-1.8,9.1-5.908L320.875.011" transform="translate(3.209 0.002)"/><path class="cls-14" d="M9.759,93.583c4.9.026,9.8.186,14.69.053,13.22-.358,26.437-.843,39.655-1.265.743-.024,1.49.07,2.231.111q-1.9,4.695-3.8,9.386a.528.528,0,0,0-.08.46l-1.374,2.848a.49.49,0,0,0-.088.453l-.6,1.19a.464.464,0,0,0-.146.448,11.492,11.492,0,0,0-1.085,1.628c-2.715,6.061-5.443,12.117-8.08,18.213-2.069,4.785-4.016,9.623-6.017,14.437a.522.522,0,0,0-.113.473l-4.9,9.666c-.857-1.379-1.518-2.418-2.153-3.472-.925-1.535-1.832-3.082-2.746-4.624a.25.25,0,0,0-.116-.305c-1.845-3.818-3.631-7.666-5.56-11.44-1.043-2.042-2.333-3.958-3.511-5.93l-.5-1.308q-4.933-9.318-9.869-18.636l-1.376-2.294-.4-.516-3.148-6.521Z" transform="translate(3.209 0.002)"/><path class="cls-15" d="M184.678,129.423l-1.006,1.723-2.754-3.074c-1.473-1.831-2.9-3.706-4.437-5.477-.929-1.067-2.044-1.972-3.076-2.95a4.365,4.365,0,0,0-.1-.436,19.657,19.657,0,0,0-1.417-2.218c-1.891-2.26-3.841-4.47-5.768-6.7l-5.164-6.2-2.464-2.643-7.18-8.919-3.6-3.509-4.467-5.305q-.446-.933-.89-1.865c6.473-1.523,13-2.838,19.406-4.616,11.292-3.134,22.505-6.552,33.753-9.846.394-.115.807-.164,1.211-.244l-.72,7.415a3.6,3.6,0,0,0,.059.45q-1.143,5.055-2.289,10.109-1.1,5.283-2.2,10.567c-.214.963-.454,1.921-.637,2.89q-1.713,9.062-3.4,18.126l-2.19,10.589Q185.012,128.357,184.678,129.423Z" transform="translate(3.209 0.002)"/><path class="cls-14" d="M206.756,63.786c6.585-2.616,13.254-5.039,19.734-7.892,10.365-4.563,20.6-9.413,30.9-14.129a13.3,13.3,0,0,1,1.662-.52c-.67,12.7-1.37,25.4-1.992,38.1-.247,5.056-.324,10.12-.478,15.18l.063,1.461q-.3,3.4-.595,6.791.079,1,.16,2l-.031-.011-1.068,2.167c-1.069-1-2.118-2.022-3.21-3-5.381-4.807-10.741-9.638-16.172-14.388-4.1-3.589-8.3-7.067-12.461-10.6l-.864-.8-.978-.827-.87-.927-2.1-1.7-.308-.422-1.529-1.247-.013-.008-3.524-3.047a.486.486,0,0,0-.278-.369l-1.557-1.306-.831-.783-1.6-1.226-.1-.024-.461-.341-1.433-1.383Z" transform="translate(3.209 0.002)"/><path class="cls-12" d="M117.523,128.928c-1.447,4.409-2.865,8.827-4.363,13.218a16.316,16.316,0,0,1-1.376,2.518,12.07,12.07,0,0,1-1.882-1.738c-2.359-3.325-4.635-6.709-6.964-10.055a10.8,10.8,0,0,0-1.168-1.228q-2.662-4.353-5.322-8.707c-.835-1.271-1.621-2.579-2.524-3.8-.779-1.054-1.69-2.01-2.543-3.009L89.8,113.408l-6.152-9.1a24.1,24.1,0,0,0-1.1-2.193c-2.2-3.493-4.432-6.965-6.653-10.445q26.811-3.657,53.623-7.308a9.547,9.547,0,0,1,1.232-.012c-.759,3.01-1.451,6.037-2.288,9.025-1.31,4.678-2.717,9.329-4.084,13.992a20.113,20.113,0,0,0-1.132,2.415q-1.668,5.172-3.224,10.379C119.154,123.073,118.354,126.005,117.523,128.928Z" transform="translate(3.209 0.002)"/><path class="cls-12" d="M316.983,8.746q.315,1.98.631,3.96c.5,4.957.959,9.918,1.5,14.871.661,6.028,1.393,12.048,2.08,18.073.046.408-.086.837-.033,1.242.293,2.255.618,4.5.932,6.756q.273,1.683.547,3.367l.027,4.664.175.981c.163,2.646.326,5.293.5,8.152l-6.485-3.507-4.537-2.822-6.888-4.363-2.94-2.04-1.706-1.141-1.046-.439-5.727-3.591-11.579-7.628L280.8,44.15l-2.883-1.673-2.827-1.936-.532-.042L271.1,38.151l-.068-.053-1.542-2.292c5.464-3.146,11.036-6.12,16.368-9.476,9.625-6.058,19.1-12.347,28.649-18.533.625-.4,1.284-.756,1.927-1.133Q316.708,7.705,316.983,8.746Z" transform="translate(3.209 0.002)"/><path class="cls-15" d="M694.85,162.078a4.871,4.871,0,0,0-.352-1.36c-2.092-3.442-4.189-6.882-6.354-10.278-1.983-3.111-4.052-6.167-6.083-9.247q-.888-1.727-1.774-3.454l-4.593-6.966c-2.494-3.977-4.909-8.007-7.51-11.913-1.767-2.652-3.8-5.128-5.707-7.683l.483-2.611a14.942,14.942,0,0,1,1.888-.428c10.419-1.022,20.856-1.887,31.256-3.079,7.255-.831,14.46-2.1,21.688-3.178-2.737,8.025-5.5,16.043-8.183,24.086a20.3,20.3,0,0,0-.534,3.575l-3.519,9.386q-1.58,4.79-3.16,9.578l-3.514,9.385-1.917,5.8" transform="translate(3.209 0.002)"/><path class="cls-13" d="M717.792,101.881c-7.228,1.075-14.433,2.347-21.688,3.178-10.4,1.192-20.837,2.057-31.256,3.079a14.942,14.942,0,0,0-1.888.428l-10.406.348-.135-.035c-.744-.042-1.487-.113-2.231-.121-11.373-.127-22.749-.133-34.119-.41-6.3-.154-12.585-.758-18.875-1.16l-2.286-.317-1.67-.189-2.67-.228-.98-.15-1.781-.119h-.03l-2.288-.239a13.437,13.437,0,0,0-1.673-.486c-11.187-1.768-22.4-3.391-33.558-5.323-6.976-1.208-13.872-2.879-20.8-4.34-.3.078-.6.153-.907.229l-1.5-.729-7.809-2.249c-.381-.156-.752-.344-1.144-.465-11.192-3.479-22.425-6.835-33.566-10.47-6.316-2.061-12.484-4.578-18.719-6.89l-11.048-4.339a9.476,9.476,0,0,0-1.035-.672q-24.354-11.8-48.714-23.576l-7.952-4.34-.459-.274c-.6-.445-1.168-.936-1.8-1.327-11.245-6.961-22.524-13.868-33.735-20.882-4.15-2.6-8.144-5.441-12.209-8.172l-.533-.585-1.177-.948L345.836,9.4a.186.186,0,0,0-.221-.205c-1.134-.864-10.326-6.931-13.507-9.117C333.427,0,335.777,0,336.362,0c2.8,1.981,16.178,10.789,18.981,12.771l.8.584,1.206.981q2.53,1.716,5.063,3.43l4.7,3.029,1.734.96,5.969,3.976,1.711,1,.844.664,1.73.977,12.106,7.351,1.758.95,3.489,2.042,1.745.908L400.383,41l1.323.811,2.623,1.448,13.321,7.015.88.444,1.825.97,2.209,1.186,11.261,5.484,1.328.676,16.867,7.78,4.535,2c4.537,1.822,9.065,3.666,13.615,5.456,1.832.721,3.711,1.325,5.569,1.983l2.358.822,11.388,4.1,2.282.947,2.467.668,3.3,1.122,4.441,1.271.919.328,3.878,1.149,1.877.665,12.234,3.359,1.89.6,1.527.329,2.372.751,5.566,1.208,1.411.415,4.963,1.2,1.476.266,3.113.7.894.244,1.528.36,1.472.21,1.289.2.118-.027,2.142.547,1.561.285,1.442.323,1.058.16,1.471.294.563.1.957.207,8.718,1.6a.357.357,0,0,0,.447.03l2.1.218,3.481.681.586.07,2.059.221,1.275.174,1.237.3,13.057,1.517,2.54.342,1.5.084.657.081.917.043,1.17.149,2.271.209.077.007,3.224.231,2.9.261.539.011,3.8.183,11.776.686.951.064,1.045-.1,2.753.246.675-.068.992.029,3.331.051,10.846.111,23.76-.937,9.178-.672.643-.117,4.022-.29,2.291-.226,2.192-.208,1.8-.249,1.1-.1,9.442-1.24a.4.4,0,0,0,.451-.053l.626-.07,1.28-.225,24.031-4.02c1.14-.238,22.158-4,35.821-7.144,19.319-4.438,33.114-8.673,34.726-9.01l1.236,1.564a6.747,6.747,0,0,1-1.764,1.054c-2.405.552-20.239,5.625-39.4,10.025C737.816,98.282,719.836,101.438,717.792,101.881Z" transform="translate(3.209 0.002)"/><path class="cls-14" d="M348.86,11.64c4.065,2.731,8.059,5.575,12.209,8.172,11.211,7.014,22.49,13.921,33.735,20.882.632.391,1.2.882,1.8,1.326q-4.181,2.859-8.354,5.72a.526.526,0,0,0-.321.339l-2.72,1.612a.492.492,0,0,0-.325.328l-1.157.661a.462.462,0,0,0-.369.292,11.529,11.529,0,0,0-1.8.756c-5.615,3.547-11.238,7.083-16.806,10.7-4.371,2.841-8.669,5.8-13,8.7a.52.52,0,0,0-.356.331L341.959,76.8c.049-1.623.073-2.854.127-4.083.079-1.791.18-3.581.271-5.371a.25.25,0,0,0,.072-.319c.575-4.2,1.216-8.394,1.7-12.606.26-2.277.246-4.587.355-6.882l.307-1.366q1.044-10.492,2.087-20.985L347,22.518l-.047-.65.985-7.174Z" transform="translate(3.209 0.002)"/><path class="cls-15" d="M474.752,138.26l-1.791.879c-.214-1.466-.4-2.775-.6-4.084-.213-2.341-.36-4.689-.665-7.018-.184-1.4-.613-2.774-.932-4.159.06-.137.113-.276.159-.418a19.637,19.637,0,0,0,.046-2.632c-.325-2.928-.727-5.848-1.1-8.771L469,104.038l-.591-3.565-1.047-11.4q-.526-2.457-1.054-4.913-.395-3.445-.788-6.89l.291-2.046c6.235,2.312,12.4,4.829,18.719,6.89,11.141,3.635,22.374,6.991,33.566,10.47.392.121.763.309,1.143.466l-4.7,5.779a3.569,3.569,0,0,0-.2.407q-3.749,3.579-7.5,7.155l-7.681,7.584c-.71.684-1.44,1.35-2.129,2.056q-6.439,6.6-12.863,13.216l-7.682,7.61Z" transform="translate(3.209 0.002)"/><path class="cls-14" d="M529.453,95.794c6.933,1.463,13.829,3.134,20.805,4.342,11.159,1.932,22.371,3.555,33.558,5.323a13.373,13.373,0,0,1,1.672.486q-11.375,15.315-22.736,30.639c-3,4.074-5.868,8.251-8.8,12.381l-.755,1.252-4.253,5.328-.975,1.757-.019-.026-2.089,1.214c-.337-1.424-.646-2.856-1.015-4.272-1.824-6.981-3.617-13.971-5.514-20.932-1.433-5.26-3.008-10.481-4.52-15.72q-.14-.572-.278-1.142l-.358-1.23-.211-1.253-.81-2.578-.022-.522-.584-1.885-.007-.013-1.25-4.488a.487.487,0,0,0-.028-.461l-.574-1.949-.259-1.112-.656-1.908-.07-.075-.194-.538-.429-1.946Z" transform="translate(3.209 0.002)"/><path class="cls-12" d="M419.081,100.7c-3.644,2.873-7.269,5.769-10.946,8.6a16.257,16.257,0,0,1-2.54,1.337,12.116,12.116,0,0,1-.606-2.49c-.126-4.074-.149-8.152-.239-12.228a10.678,10.678,0,0,0-.294-1.669q.191-5.1.384-10.2c.007-1.52.076-3.045,0-4.562-.066-1.308-.3-2.609-.455-3.913l.187-3.14L404.48,61.45a24.241,24.241,0,0,0,.3-2.434c.1-4.126.162-8.254.236-12.381q24.359,11.785,48.714,23.576a9.4,9.4,0,0,1,1.033.671c-2.3,2.088-4.549,4.227-6.9,6.252-3.679,3.173-7.425,6.269-11.143,9.4a20.372,20.372,0,0,0-2.279,1.386q-4.25,3.386-8.428,6.863C423.679,96.724,421.39,98.723,419.081,100.7Z" transform="translate(3.209 0.002)"/><path class="cls-12" d="M622.693,166.142l-3.464-6.509q-1.109-2.43-2.218-4.86l-3.324-7.446L612.366,144l-.79-1.9-.629-.944L608.163,135l-5.427-12.761L602,120.4l-1.475-2.988-1.285-3.177-.42-.329-1.582-3.869-.026-.082q-.009-1.382-.017-2.762c6.292.4,12.579,1.006,18.877,1.16,11.37.277,22.746.283,34.119.41.744.008,1.487.079,2.231.122l-.693,2.038q-.832,1.824-1.665,3.648c-2.328,4.405-4.688,8.793-6.975,13.219-2.784,5.387-5.5,10.808-8.265,16.207-.187.365-.535.649-.715,1.017-1,2.039-1.977,4.093-2.961,6.143q-.7,1.554-1.406,3.108-1.278,1.95-2.558,3.9l-.4.914-4.092,7.068" transform="translate(3.209 0.002)"/><path class="cls-16" d="M42.509,107.515q-1.115,1.953-2.123,3.953t-1.938,4.076q-.434.962-.929,2.217t-.931,2.371q-.526,1.3-1.022,2.666a.383.383,0,0,0,.015.387.317.317,0,0,0,.357.078.528.528,0,0,0,.154-.031,1.315,1.315,0,0,0,.171-.015c.072-.011.16-.027.263-.047a25.3,25.3,0,0,1,3.441-.263,22.423,22.423,0,0,1,3.441.232.573.573,0,0,1,.264.124.2.2,0,0,1,.046.248.283.283,0,0,1-.216.186.776.776,0,0,1-.311,0c-.31-.041-.615-.073-.914-.093l-.883-.062a24.739,24.739,0,0,0-6.541.558.78.78,0,0,1-.388-.046.242.242,0,0,1-.17-.326q.434-1.179.868-2.371t.929-2.372a89.281,89.281,0,0,1,3.783-8.215q.495-.96,1.177-2.154l1.3-2.279q.744-1.239,1.487-2.511a.327.327,0,0,0,.062-.372.364.364,0,0,0-.34-.155h-.837q-1.83-.03-3.612-.015t-3.58-.047a.636.636,0,0,1-.218-.046.17.17,0,0,1-.124-.171.191.191,0,0,1,.124-.2.64.64,0,0,1,.218-.047h9.206a.539.539,0,0,1,.31.109c.1.073.114.17.032.294q-.682,1.086-1.318,2.17T42.509,107.515Z" transform="translate(3.209 0.002)"/><path class="cls-16" d="M111.127,112.437a.736.736,0,0,1,.285.019.218.218,0,0,1,.187.19.249.249,0,0,1-.118.254.64.64,0,0,1-.264.119l-.245.038a.5.5,0,0,0-.352.259.673.673,0,0,0-.1.47c0,.166.013.354.024.561q.007.251.04.559t.044.589c.013.354.031.706.055,1.058s.041.7.054,1.058l.039,1.061c.013.353.017.708.009,1.065q.016.311-.381.372a.633.633,0,0,1-.288-.033.249.249,0,0,1-.189-.206q-.033-.623-.045-1.2t-.045-1.2q-.03-.593-.058-1.184t-.059-1.183c-.022-.143-.04-.286-.051-.431a2.929,2.929,0,0,1-.011-.374,2.114,2.114,0,0,0-.022-.342.537.537,0,0,0-.672-.492,4.157,4.157,0,0,1-.517.111c-.163.026-.335.058-.518.1s-.365.072-.549.1c-.323.071-.643.136-.958.2s-.636.114-.962.164l-.149.055a.384.384,0,0,0-.262.229,1.207,1.207,0,0,0-.133.46,3.327,3.327,0,0,0-.025.443,1.643,1.643,0,0,0-.012.425,2.738,2.738,0,0,1,0,.487q-.006,2.385.075,4.725a.286.286,0,0,1-.109.206.489.489,0,0,1-.235.1.417.417,0,0,1-.24-.025.207.207,0,0,1-.12-.17q-.148-1.358-.167-2.688t.022-2.686a1.342,1.342,0,0,0-.01-.264.64.64,0,0,1,0-.2.442.442,0,0,1,0-.188.617.617,0,0,0-.1-.425.278.278,0,0,0-.273-.145l-.184.029c-.065-.011-.134-.021-.209-.031a.191.191,0,0,1-.161-.131.126.126,0,0,1,.037-.163.8.8,0,0,1,.169-.12l.24-.069a.723.723,0,0,0,.4-.281.922.922,0,0,0,.179-.468c.057-.844.134-1.694.232-2.545q.114-1.083.239-2.3t.289-2.178q.357-2.346.9-4.532a14.23,14.23,0,0,1,.7-1.959,6.348,6.348,0,0,1,1.115-1.71.529.529,0,0,1,.417-.143c.188,0,.294.075.316.217q.462,2.375.825,4.7.327,2.114.607,4.219t.456,4.243a1.492,1.492,0,0,0,.014.3l.036.229.028.185a.616.616,0,0,0,.159.414.328.328,0,0,0,.361.1Zm-3.832.783c.184-.029.378-.063.581-.105s.383-.086.543-.132q.3-.078.547-.117a.572.572,0,0,0,.4-.265.8.8,0,0,0,.145-.477q-.09-.99-.182-1.98-.066-.835-.183-1.791t-.206-1.725q-.117-.954-.3-2.149l-.352-2.267q-.191-1.224-.426-2.538c-.025-.163-.071-.256-.137-.276s-.137.058-.214.237q-.209.472-.388.939-.156.4-.32.865a7.29,7.29,0,0,0-.254.886,61.8,61.8,0,0,0-1.387,9.251q-.068.576-.093,1.018a4.172,4.172,0,0,0-.02.474,1,1,0,0,0,.033.418c.038.11.1.158.18.145l.091-.014q.516-.111.989-.2T107.3,113.22Z" transform="translate(3.209 0.002)"/><path class="cls-17" d="M178.944,87.508a11.19,11.19,0,0,1,.29,1.111q.111.547.2,1.13c.057.39.107.769.15,1.14a8.293,8.293,0,0,1,.049,1.129q.022.6.008,1.169a6.546,6.546,0,0,1-.131,1.134.365.365,0,0,1-.3.22.459.459,0,0,1-.177-.012.15.15,0,0,1-.134-.114c0-.191.009-.371.017-.542s.012-.35.016-.541q0-1.076-.1-2.13a20.894,20.894,0,0,0-.321-2.118q-.135-.51-.264-.99t-.3-.984a3.234,3.234,0,0,0-.728-1.244,1.448,1.448,0,0,0-.511-.339.792.792,0,0,1-.119-.039.153.153,0,0,0-.082-.015l-.092.019-.03.006-.061.012-.03.006a.939.939,0,0,0-.146.062c-.077.036-.172.088-.285.152l-.145.22a1.524,1.524,0,0,0-.215.344c-.058.128-.118.251-.178.369q-.169.414-.316.855t-.28.879q-.126.469-.234.949t-.173.937A21.933,21.933,0,0,0,174,94.129a29,29,0,0,0,.271,3.821q.3,1.932.772,3.8.246.9.527,1.807a9.285,9.285,0,0,0,.731,1.733,6.289,6.289,0,0,0,1.057,1.462,3.841,3.841,0,0,0,.689.587,1.058,1.058,0,0,0,.706.2l.031-.006.03-.006.03-.007.183-.037a2.011,2.011,0,0,0,.339-.195,1.9,1.9,0,0,0,.515-.58,3.624,3.624,0,0,0,.414-.843c.1-.294.2-.59.31-.886a.363.363,0,0,1,.394-.238.284.284,0,0,1,.2.039.115.115,0,0,1,.064.16,5.111,5.111,0,0,1-.185.956,4.065,4.065,0,0,1-.41.937,3,3,0,0,1-.667.768,2.408,2.408,0,0,1-.931.475,1.876,1.876,0,0,1-1.03-.012,2.57,2.57,0,0,1-.905-.48,6.338,6.338,0,0,1-.729-.706,5.843,5.843,0,0,1-.589-.8,9.1,9.1,0,0,1-.48-.883,13.147,13.147,0,0,1-.733-1.891q-.293-.969-.521-1.935a30.489,30.489,0,0,1-.73-4.058,28.623,28.623,0,0,1-.154-4.113,20.175,20.175,0,0,1,.555-4.068c.1-.337.2-.667.291-.992s.191-.645.3-.962q.163-.444.361-.88a2.831,2.831,0,0,1,.538-.79,2.411,2.411,0,0,1,.8-.5,1.489,1.489,0,0,1,.928-.046,1.6,1.6,0,0,1,.72.344,2.834,2.834,0,0,1,.551.6,5.456,5.456,0,0,1,.4.789Q178.8,87.1,178.944,87.508Z" transform="translate(3.209 0.002)"/><path class="cls-16" d="M242.163,60.935c.027-.1.122-.166.287-.2s.251.015.26.145q-.025.681-.071,1.351t-.1,1.362q-.054.692-.12,1.353t-.091,1.342q-.108,1.215-.168,2.427t-.14,2.416q-.031.582-.066,1.2t-.054,1.226c-.015.185-.025.378-.032.582s-.013.406-.02.61c-.014.185-.029.38-.045.587a2.6,2.6,0,0,0,.011.564.957.957,0,0,0,.207.469,3.747,3.747,0,0,0,.367.369c.159.115.318.234.48.357s.322.243.48.358l.971.743q.486.372,1,.731t.991.752q.475.391.991.752c.165.133.336.265.512.394s.341.252.5.367.318.233.48.357.325.252.491.386c.078.08.09.152.039.218s-.1.129-.14.191a.516.516,0,0,1-.506.072,5.842,5.842,0,0,1-.595-.395l-.578-.434q-.261-.229-.543-.432t-.573-.42q-.578-.435-1.135-.86t-1.136-.861q-.514-.359-1-.746t-.978-.758l-.092-.062q-.093-.063.06.477l.758,1.867.683,1.681q.356.876.676,1.582a.252.252,0,0,1-.042.268.606.606,0,0,1-.244.182.6.6,0,0,1-.3.039.249.249,0,0,1-.217-.162l-1.726-4.252q-.741-1.907-1.49-3.794t-1.462-3.806l-.713-1.919q-.355-.96-.712-1.919-.158-.471-.345-.931t-.355-.959c-.063-.153-.122-.313-.179-.48s-.116-.326-.178-.48q-.064-.242-.149-.491a2.747,2.747,0,0,1-.121-.5.329.329,0,0,1,.517-.21,1.524,1.524,0,0,1,.288.5q.1.279.213.566c.07.172.135.347.195.523s.13.36.208.551q.18.529.391,1.046t.391,1.045q.345.931.8,2.1t.85,2.215q.46,1.218.963,2.453c.062.154.12.23.176.23s.082-.089.077-.265q.024-.68.079-1.371.032-.582.062-1.247t.063-1.246q.08-1.2.169-2.427t.2-2.44q.048-.621.1-1.244t.138-1.227q.048-.621.117-1.235C242.023,61.756,242.084,61.347,242.163,60.935Z" transform="translate(3.209 0.002)"/><path class="cls-16" d="M303.439,28.332a.758.758,0,0,1,.274-.081.221.221,0,0,1,.241.114c.042.119.091.239.147.362s.105.243.147.361q.2.492.419,1.043t.42,1.044q.206.559.424,1.147a3.942,3.942,0,0,0,.219.588,4.037,4.037,0,0,1,.22.587q.5,1.282,1.022,2.481.405,1.053.907,2.21t.9,2.07l1.66,3.759c.124.309.258.614.4.912s.289.608.442.925l.482.868a2.27,2.27,0,0,0,.148.236,2,2,0,0,1,.134.209l.015.028a1.747,1.747,0,0,0,.353.123l.021.166a.51.51,0,0,1-.217.439.7.7,0,0,1-.293.145.43.43,0,0,1-.328-.048.8.8,0,0,1-.2-.228,1.557,1.557,0,0,0-.17-.243,9.714,9.714,0,0,1-.635-1.048q-.279-.535-.526-1.108-.336-.735-.753-1.71t-.771-1.8q-.4-.981-.848-1.976c-.063-.154-.11-.228-.142-.223s-.026.092.018.257a1.776,1.776,0,0,1,.087.412c.024.129.044.272.06.428a3.613,3.613,0,0,0,.075.454c.028.222.063.444.105.669a.959.959,0,0,1-.091.635,1.507,1.507,0,0,1-1.093.713,1.483,1.483,0,0,1-1.261-.293,8.275,8.275,0,0,1-1-.9,16.372,16.372,0,0,1-1.983-2.392,27.859,27.859,0,0,1-1.592-2.644q-.712-1.412-1.342-2.836t-1.166-2.9a.3.3,0,0,1,.034-.2.385.385,0,0,1,.16-.16.316.316,0,0,1,.206-.043.194.194,0,0,1,.143.1c.06.108.115.219.166.333s.108.224.168.332q.585,1.377,1.2,2.738t1.351,2.69a24.831,24.831,0,0,0,1.57,2.479,16.47,16.47,0,0,0,1.92,2.214c.144.132.3.272.462.417a2.712,2.712,0,0,0,.5.36,1.11,1.11,0,0,0,.491.118.344.344,0,0,0,.15-.048l.027-.015.027-.015.081-.045.055-.03.024-.085.027-.015.012-.042a.932.932,0,0,0-.025-.269c-.023-.1-.042-.213-.056-.324a5.706,5.706,0,0,0-.108-.738c-.052-.243-.1-.483-.135-.723q-.585-2.971-1.46-5.89a1.318,1.318,0,0,0-.085-.218.309.309,0,0,1-.041-.137.275.275,0,0,1-.033-.124A5.448,5.448,0,0,0,305,33.35c-.093-.232-.171-.424-.233-.58q-.307-.68-.574-1.418-.234-.613-.494-1.3t-.477-1.277a.3.3,0,0,1,.016-.257A.527.527,0,0,1,303.439,28.332Z" transform="translate(3.209 0.002)"/><path class="cls-16" d="M354.715,53.181a.221.221,0,0,1-.212.136.62.62,0,0,1-.27-.068.687.687,0,0,1-.224-.183.22.22,0,0,1-.027-.257q.408-.871.863-1.7t.891-1.686q1.612-2.972,3.322-5.928c.291-.478.58-.956.871-1.434s.585-.966.886-1.463c.149-.248.3-.488.436-.717s.3-.465.464-.7c.15-.248.3-.49.456-.724a8.446,8.446,0,0,1,.514-.7c.066-.082.176-.079.332.012s.215.2.178.316a6,6,0,0,1-.449.85c-.168.262-.336.537-.5.822a9.091,9.091,0,0,0-.5.808c-.155.281-.32.55-.5.808q-.885,1.462-1.715,2.918t-1.658,2.948l-1.6,2.942-.764,1.507Q355.122,52.45,354.715,53.181ZM365.3,45.932a19.074,19.074,0,0,1-1.326,2.647A21.9,21.9,0,0,1,362.27,51a21.351,21.351,0,0,1-4.294,4.008,15.688,15.688,0,0,1-2.5,1.51,5.845,5.845,0,0,1-1.355.442,3.154,3.154,0,0,1-1.42-.044.78.78,0,0,1-.277-.14.284.284,0,0,1-.109-.264.18.18,0,0,1,.091-.18.284.284,0,0,1,.229-.04,2.354,2.354,0,0,0,.61.032,3.348,3.348,0,0,0,1.228-.229,8.011,8.011,0,0,0,1.147-.547q.6-.357,1.177-.741t1.134-.8a22.3,22.3,0,0,0,2.125-1.824,18.353,18.353,0,0,0,1.851-2.1,20.44,20.44,0,0,0,2.788-4.877,19.679,19.679,0,0,0,.855-2.677,9.71,9.71,0,0,0,.26-2.806,7.717,7.717,0,0,0-.207-1.27,4.175,4.175,0,0,0-.5-1.174,2.149,2.149,0,0,0-1.74-1.092.305.305,0,0,1-.331-.238c-.074-.13-.022-.208.153-.235a1.308,1.308,0,0,1,.666.06,2.435,2.435,0,0,1,1.188.6,4.237,4.237,0,0,1,.853,1.059,4.85,4.85,0,0,1,.491,1.327,8.206,8.206,0,0,1,.172,1.408,10.471,10.471,0,0,1-.323,2.931A21.824,21.824,0,0,1,365.3,45.932Z" transform="translate(3.209 0.002)"/><path class="cls-16" d="M428.9,75.567a18.586,18.586,0,0,1-.9,2.463,15.654,15.654,0,0,1-1.258,2.282,18.071,18.071,0,0,1-3.485,4q-.5.441-1.03.834t-1.085.736a12.546,12.546,0,0,1-1.209.64,4.565,4.565,0,0,1-1.319.374,3.282,3.282,0,0,1-1.378-.02,2.493,2.493,0,0,1-1.822-1.79,5.975,5.975,0,0,1-.181-1.255,9.625,9.625,0,0,1,.1-1.372c.067-.453.133-.906.2-1.358q.154-.72.331-1.413t.389-1.384a21.97,21.97,0,0,1,2.464-5.146,21.487,21.487,0,0,1,1.73-2.321,20.782,20.782,0,0,1,2-2.042q.308-.263.7-.552t.738-.5q.4-.247.847-.509.237-.123.411-.227a.754.754,0,0,0,.187-.131l.042-.013a2.611,2.611,0,0,1,1.125-.231,2.547,2.547,0,0,1,1.183.373,3.614,3.614,0,0,1,.959.815A3.663,3.663,0,0,1,429.28,69a5.609,5.609,0,0,1,.265,1.3,8.99,8.99,0,0,1,.008,1.324q-.047.672-.131,1.323a9.447,9.447,0,0,1-.208,1.3Q429.066,74.889,428.9,75.567Zm-2.443,3.454a16.834,16.834,0,0,0,1.078-2.269,16.391,16.391,0,0,0,.718-2.38q.141-.624.242-1.233t.144-1.248c.021-.406.036-.815.048-1.226a5.119,5.119,0,0,0-.106-1.2,3.147,3.147,0,0,0-.41-1.112.183.183,0,0,0-.083-.111l-.014-.042a.364.364,0,0,1-.123-.167l-.069-.069c-.038-.019-.058-.035-.063-.049s-.025-.03-.062-.049l-.014-.041a.48.48,0,0,1-.1-.07.475.475,0,0,0-.1-.07l-.014-.042-.111-.056-.027-.013-.221-.112-.028-.015-.028-.014a.128.128,0,0,0-.075-.021.063.063,0,0,1-.049-.007.181.181,0,0,0-.125-.028l-.055-.028-.028-.014a1.194,1.194,0,0,0-.2.02c-.089.013-.193.024-.313.033l-.194.04a3.879,3.879,0,0,0-1.049.425,8.623,8.623,0,0,0-.952.647,17.7,17.7,0,0,0-1.936,1.766,18.268,18.268,0,0,0-1.784,2.05,21.16,21.16,0,0,0-1.481,2.274,21.667,21.667,0,0,0-1.182,2.441,25.729,25.729,0,0,0-.893,2.554q-.169.678-.311,1.336t-.242,1.337q-.058.6-.117,1.226a5.4,5.4,0,0,0,.023,1.228,2.231,2.231,0,0,0,.1.52,2.31,2.31,0,0,0,.227.479,1.9,1.9,0,0,0,.331.307l.027.014a.086.086,0,0,1,.041.055l.139.07a.138.138,0,0,0,.062.015c.023,0,.025,0,.007-.014l.11.056c.084.018.158.033.223.043l.29.042c.075-.009.16-.018.256-.026s.2-.022.3-.04a4.321,4.321,0,0,0,1.166-.383,7.227,7.227,0,0,0,1.1-.57,12.077,12.077,0,0,0,1-.7,10.555,10.555,0,0,0,1-.764q.467-.408.939-.863a15.939,15.939,0,0,0,1.638-1.864A19.737,19.737,0,0,0,426.454,79.021Z" transform="translate(3.209 0.002)"/><path class="cls-16" d="M557.464,122.474a.169.169,0,0,1-.1.216.86.86,0,0,1-.264.059,3.557,3.557,0,0,1-.718-.044l-.305-.06a.838.838,0,0,0-.461.1.475.475,0,0,0-.254.33l-.077.238q-.256,1.15-.52,2.268t-.58,2.255a5.187,5.187,0,0,0-.2.64,3.593,3.593,0,0,1-.191.578q-.126.324-.215.622a2.844,2.844,0,0,0-.174.487c-.044.171-.073.3-.089.378l-.024.122q-.1.7-.22,1.378t-.19,1.384a5.2,5.2,0,0,1-.056.7,5.042,5.042,0,0,0-.057.7c-.024.122-.041.239-.053.353s-.019.233-.022.359l-.012.061.037.133.025.036a.346.346,0,0,1,.218.264.306.306,0,0,1-.167.283.439.439,0,0,1-.461.1.86.86,0,0,1-.421-.271.557.557,0,0,1-.1-.383c.016-.134.025-.263.029-.389.007-.146.019-.291.037-.435s.029-.289.037-.435c.011-.166.029-.341.055-.526s.043-.36.054-.526a4.954,4.954,0,0,1,.064-.493c.012-.166-.016-.271-.08-.315s-.165,0-.3.147a.686.686,0,0,1-.151.129l-.182.122a1.32,1.32,0,0,1-.279.136,1.58,1.58,0,0,1-1.107.006,1.382,1.382,0,0,1-.415-.3,1.593,1.593,0,0,1-.294-.436,6.071,6.071,0,0,1-.51-1.93,12.654,12.654,0,0,1-.023-2,20.586,20.586,0,0,1,.262-2.08q.183-1.023.384-2.057.207-1.065.477-2.134t.574-2.146A37.958,37.958,0,0,1,552,115.981q.22-.493.478-1t.508-.99q.234-.4.481-.775a2.307,2.307,0,0,1,.647-.648,1.411,1.411,0,0,1,.954-.194,1.465,1.465,0,0,1,.89.457,2.436,2.436,0,0,1,.515.763,3.593,3.593,0,0,1,.267.905,4.97,4.97,0,0,1-.032,1.872q-.2.925-.458,1.79-.072.207-.346.154c-.183-.036-.26-.124-.232-.266l.165-.852a16.257,16.257,0,0,0,.234-1.692,3.546,3.546,0,0,0-.247-1.658l-.185-.352a1.8,1.8,0,0,0-.22-.327.769.769,0,0,0-.3-.247c-.1-.04-.158-.052-.182-.036a.9.9,0,0,0-.594.374,4.335,4.335,0,0,0-.392.635,22.35,22.35,0,0,0-1.793,3.71,38.4,38.4,0,0,0-1.233,3.913q-.519,2.016-.883,4.06-.183.944-.321,1.895a16.081,16.081,0,0,0-.162,1.9q0,.476.041.924a7.178,7.178,0,0,0,.139.911,2.066,2.066,0,0,0,.088.444c.045.145.1.287.154.424.029.069.057.138.087.206a.912.912,0,0,0,.092.177.228.228,0,0,1,.033.069.3.3,0,0,0,.034.07c.062.012.088.037.08.079l0-.031.025.036.031.006.031.006c-.022,0-.01-.007.032-.009s.054-.006.034-.01c.068-.029.132-.053.188-.073a.773.773,0,0,0,.157-.08,1.968,1.968,0,0,0,.342-.3c.106-.117.2-.229.287-.339a4.424,4.424,0,0,0,.549-.794q.222-.414.433-.847l.042-.055c.008-.04.032-.136.072-.286s.074-.307.106-.469l.077-.4c.023-.122.045-.259.065-.414a2.457,2.457,0,0,1,.106-.468q.173-.724.414-1.641t.491-1.721q.282-.956.586-1.875.173-.567-.181-.7l-.176-.066-.439-.18-.115-.054a.339.339,0,0,1-.081-.079.364.364,0,0,0-.079-.078.229.229,0,0,0-.085-.048l-.031-.006c-.114-.065-.129-.152-.044-.261l.079-.08.548.106.122.024.438.18.177.065a1.69,1.69,0,0,0,.529.04l.122.024.091.017a1.04,1.04,0,0,0,.366.151q.255.066.5.112l.244.048a2.658,2.658,0,0,0,.626.026.586.586,0,0,1,.286.072A.324.324,0,0,1,557.464,122.474Z" transform="translate(3.209 0.002)"/><path class="cls-16" d="M628.463,139.5a.423.423,0,0,1,.3.084.28.28,0,0,1,.137.258.221.221,0,0,1-.171.206.832.832,0,0,1-.313.039q-1.678,0-3.371-.025t-3.37-.026l-1.49-.014a2.953,2.953,0,0,1-.42-.062.606.606,0,0,1-.344-.211.448.448,0,0,1-.1-.225c-.015-.084-.027-.178-.04-.283q.023-.744.077-1.486l.107-1.484q.216-3,.523-5.961.165-1.481.345-2.959t.405-2.954c.073-.471.148-.953.222-1.445s.15-.984.224-1.476q.147-.735.262-1.473a12.429,12.429,0,0,1,.323-1.468.17.17,0,0,1,.121-.162.577.577,0,0,1,.235-.03.475.475,0,0,1,.214.062.173.173,0,0,1,.08.177q-.12.8-.255,1.6t-.255,1.6q-.12.8-.226,1.616t-.225,1.615q-.394,2.894-.7,5.778t-.448,5.8l-.105,1.453a2.447,2.447,0,0,1,0,.373l-.027.371-.013.185-.022.31a.179.179,0,0,0,.022.126l.155.011.092.007c.1.007.217.01.341.009s.238,0,.341.009l1.492.014Z" transform="translate(3.209 0.002)"/><path class="cls-16" d="M759.2,119.06A7.1,7.1,0,0,1,760.29,122a4.677,4.677,0,0,1-.562,3.015,4.06,4.06,0,0,1-.978,1.135,4.2,4.2,0,0,1-1.331.743,4.02,4.02,0,0,1-1.476.2,2.972,2.972,0,0,1-1.435-.452.1.1,0,0,1-.057-.147.937.937,0,0,1,.094-.174.422.422,0,0,1,.463-.052c.112.043.219.081.32.116a2.6,2.6,0,0,0,.315.085,2.461,2.461,0,0,0,1.217-.061l.031,0,.091-.017a.251.251,0,0,0,.148-.057,1.111,1.111,0,0,0,.324-.121l.061-.011a.028.028,0,0,0,.025-.036l.031-.006a.225.225,0,0,1,.086-.047.1.1,0,0,0,.056-.041,2.534,2.534,0,0,0,.282-.177,3.246,3.246,0,0,0,.895-.979,3.709,3.709,0,0,0,.478-1.377,5.19,5.19,0,0,0,.029-1.6,5.732,5.732,0,0,0-.429-1.513,7.878,7.878,0,0,0-.784-1.387,10.7,10.7,0,0,0-1.006-1.222,15.685,15.685,0,0,0-1.206-1.106q-.629-.516-1.256-1.035c-.419-.344-.831-.7-1.232-1.07a8.769,8.769,0,0,1-1.1-1.22,6.81,6.81,0,0,1-.772-1.326,4.79,4.79,0,0,1-.393-1.489,6.57,6.57,0,0,1,.468-3.012,5.618,5.618,0,0,1,.884-1.387,3.934,3.934,0,0,1,1.3-.99,3,3,0,0,1,1.572-.281,1.793,1.793,0,0,1,1.375.729.117.117,0,0,1,0,.174.8.8,0,0,1-.133.134.439.439,0,0,1-.444-.015,1.817,1.817,0,0,0-.6-.365,1.682,1.682,0,0,0-.618-.109,2.831,2.831,0,0,0-.579.1,2.285,2.285,0,0,0-.659.369,4.583,4.583,0,0,0-.564.543,4.117,4.117,0,0,0-.766,1.255,6.99,6.99,0,0,0-.388,1.44,5.253,5.253,0,0,0,.447,2.848,6.119,6.119,0,0,0,.85,1.312,13.057,13.057,0,0,0,1.066,1.116q.6.553,1.229,1.055t1.253,1.02q.639.579,1.223,1.2A9.757,9.757,0,0,1,759.2,119.06Z" transform="translate(3.209 0.002)"/><path class="cls-17" d="M486.164,116.774c-.015.1-.087.155-.218.153a1.028,1.028,0,0,1-.313-.044.627.627,0,0,1-.243-.151.287.287,0,0,1-.073-.256,16.611,16.611,0,0,1,.475-2.33q.318-1.139.68-2.259l.37-1.053a2.441,2.441,0,0,0,.1-.326c.01-.062-.008-.058-.054.014l-.081.136q-.486.912-1.04,1.835a8.054,8.054,0,0,1-1.3,1.645,4.789,4.789,0,0,1-1.695,1.079,2.674,2.674,0,0,1-1.971,0,1.981,1.981,0,0,1-1.269-1.531,2.664,2.664,0,0,1-.045-.476c0-.154,0-.307.012-.456l.107-1.146a27.756,27.756,0,0,1,.946-4.646,45.534,45.534,0,0,1,1.581-4.488q.918-2.24,1.964-4.37t2.16-4.267a.254.254,0,0,1,.2-.144.58.58,0,0,1,.235.033.9.9,0,0,1,.218.126.157.157,0,0,1,.05.232c-.081.168-.163.336-.243.5s-.176.344-.284.525q-1.035,2.1-2.025,4.168t-1.822,4.239a42.455,42.455,0,0,0-1.407,4.368,27.927,27.927,0,0,0-.79,4.488c-.037.293-.061.608-.07.945a1.773,1.773,0,0,0,.206.91.618.618,0,0,0,.23.278,1.031,1.031,0,0,0,.213.141l.117.041.03.01a.35.35,0,0,0,.156.023l.058.02.03.011.069-.009.029.01a1.8,1.8,0,0,0,.236-.015,2.65,2.65,0,0,0,1.639-.688,8.59,8.59,0,0,0,1.238-1.323,16.7,16.7,0,0,0,1.017-1.679q.313-.514.6-1.039t.566-1.05q1.134-2.1,2.1-4.288.143-.312.3-.652t.3-.652q.153-.34.276-.692c.075-.149.158-.339.251-.569s.165-.423.22-.58q.4-1.043.77-2.095l.669-1.9q.35-.993.668-1.8a.251.251,0,0,1,.209-.173.6.6,0,0,1,.3.024.709.709,0,0,1,.267.177.248.248,0,0,1,.069.27l-.2.571c-.065.185-.123.379-.172.58q-.237.672-.528,1.457t-.57,1.476q-.316.808-.606,1.627-.082.234-.22.58c-.093.23-.166.423-.221.579q-.41,1.072-.77,2.1l-1.286,3.655q-.351.995-.715,1.983t-.7,2.022q-.154.439-.3.946t-.23.938q-.117.517-.233,1.035c-.037.163-.065.307-.086.43a1.9,1.9,0,0,1-.053.244l-.01.03c-.009.084-.019.162-.034.234S486.179,116.67,486.164,116.774Z" transform="translate(3.209 0.002)"/><path class="cls-17" d="M697.394,129.385a.74.74,0,0,1,.285-.017.219.219,0,0,1,.209.165.246.246,0,0,1-.085.266.634.634,0,0,1-.245.152l-.239.069a.494.494,0,0,0-.316.3.672.672,0,0,0-.04.479q.039.248.1.553c.027.165.063.348.11.549s.086.4.119.579q.086.524.188,1.043t.187,1.043q.087.522.173,1.047c.058.349.105.7.144,1.055.036.2-.074.344-.332.418a.632.632,0,0,1-.289,0,.245.245,0,0,1-.213-.18q-.114-.613-.2-1.186c-.057-.382-.122-.776-.2-1.185q-.1-.583-.208-1.166c-.069-.389-.139-.778-.207-1.166-.04-.139-.077-.28-.106-.422a3.066,3.066,0,0,1-.058-.37,2.088,2.088,0,0,0-.065-.336.538.538,0,0,0-.729-.4,4.388,4.388,0,0,1-.5.176c-.159.046-.326.1-.5.161s-.354.118-.532.169q-.468.168-.925.316t-.934.285l-.141.073a.382.382,0,0,0-.231.26,1.24,1.24,0,0,0-.074.473,3.384,3.384,0,0,0,.031.443,1.689,1.689,0,0,0,.042.423,2.638,2.638,0,0,1,.058.483q.3,2.367.673,4.678a.288.288,0,0,1-.083.218.5.5,0,0,1-.221.128.414.414,0,0,1-.241.005.208.208,0,0,1-.14-.153q-.319-1.327-.5-2.645t-.318-2.667a1.413,1.413,0,0,0-.043-.262.624.624,0,0,1-.026-.2.436.436,0,0,1-.022-.187.615.615,0,0,0-.15-.409.281.281,0,0,0-.29-.11l-.179.052c-.064,0-.135,0-.21,0a.194.194,0,0,1-.177-.11.126.126,0,0,1,.016-.166.771.771,0,0,1,.153-.141l.23-.1a.728.728,0,0,0,.357-.328.931.931,0,0,0,.118-.486q-.075-1.269-.092-2.555-.022-1.089-.053-2.308t.012-2.2q.058-2.371.316-4.608a14.206,14.206,0,0,1,.447-2.032,6.345,6.345,0,0,1,.89-1.838.531.531,0,0,1,.395-.2c.188-.021.3.037.341.176q.759,2.3,1.413,4.562.592,2.053,1.136,4.108t.988,4.151a1.5,1.5,0,0,0,.051.292l.065.223.051.179a.613.613,0,0,0,.211.391.326.326,0,0,0,.37.055Zm-3.7,1.261c.178-.052.365-.11.561-.178s.37-.134.523-.2q.289-.115.528-.185a.572.572,0,0,0,.361-.314.8.8,0,0,0,.084-.491q-.215-.97-.431-1.941-.171-.822-.408-1.754t-.422-1.685q-.237-.931-.571-2.093l-.636-2.2q-.344-1.192-.743-2.464c-.046-.159-.1-.245-.171-.257s-.129.074-.182.262c-.1.33-.188.656-.267.98q-.1.417-.208.9a7.417,7.417,0,0,0-.14.911,61.922,61.922,0,0,0-.207,9.352q.006.579.036,1.022c.007.171.02.328.04.473a1.013,1.013,0,0,0,.086.41c.051.1.117.144.2.121l.089-.026c.332-.117.65-.224.955-.324S693.38,130.758,693.693,130.646Z" transform="translate(3.209 0.002)"/></svg>