<svg id="Layer_1" data-name="Layer 1" xmlns="http://www.w3.org/2000/svg" viewBox="0 0 238.364 122.747">
  <defs>
    <style>
      .cls-3 {
        fill: #724c16;
      }

      .cls-4 {
        fill: #cc954c;
      }

      .cls-5 {
        fill: #d32f2f;
      }
    </style>
  </defs>
  <g>
    <rect class="cls-3" x="153.297" y="212.159" width="227.165" height="5.658" transform="translate(-198.488 -24.681) rotate(-24.379)"/>
    <path d="M369.014,165.934l2.082,4.594-206.35,93.514-2.082-4.594,206.35-93.514m.305-.812L161.852,259.143l2.588,5.711,207.468-94.02-2.589-5.712Z" transform="translate(-133.544 -154.01)"/>
  </g>
  <g>
    <rect class="cls-4" x="149.638" y="200.895" width="226.91" height="11.674" transform="translate(-195.418 -26.979) rotate(-24.379)"/>
    <path d="M363.806,155.159,368.267,165l-205.887,93.3-4.461-9.843,205.887-93.3m.432-1.149L156.771,248.031l5.177,11.423,207.467-94.02-5.177-11.424Z" transform="translate(-133.544 -154.01)"/>
  </g>
  <g>
    <path class="cls-5" d="M150.1,276.347a16.142,16.142,0,1,1,16.141-16.142A16.16,16.16,0,0,1,150.1,276.347Z" transform="translate(-133.544 -154.01)"/>
    <path d="M150.1,244.475a15.73,15.73,0,1,1-15.73,15.73,15.748,15.748,0,0,1,15.73-15.73m0-.822a16.553,16.553,0,1,0,16.553,16.552A16.551,16.551,0,0,0,150.1,243.653Z" transform="translate(-133.544 -154.01)"/>
  </g>
</svg>
